<mxfile host="app.diagrams.net" modified="2023-06-10T07:39:53.127Z" agent="Mozilla/5.0 (Macintosh; Intel Mac OS X 10_15_7) AppleWebKit/537.36 (KHTML, like Gecko) Chrome/112.0.0.0 Safari/537.36" version="21.3.8" etag="PukOtpueUWpwi9FWIk2Z" type="github">
  <diagram name="Page-1" id="H8DGQnAxZas_1jND2FEZ">
    <mxGraphModel>
      <root>
        <mxCell id="0" />
        <mxCell id="1" parent="0" />
      </root>
    </mxGraphModel>
  </diagram>
</mxfile>
